<svg width="184" height="40" viewBox="0 0 184 40" fill="none" xmlns="http://www.w3.org/2000/svg">
<path d="M19.076 19.0683H0V0H19.076V19.0683Z" fill="#ED1C24"/>
<path d="M4.65747 9.40798H6.58348C7.13596 9.40798 7.58869 9.00897 7.58869 8.44881V7.86564C7.58869 7.85541 7.58869 7.84262 7.58869 7.82727C7.69611 7.83239 7.80098 7.83495 7.90329 7.83495V11.4184C7.79587 11.4184 7.69611 11.4184 7.58869 11.4184C7.58869 11.357 7.58869 11.2982 7.58869 11.2419V10.7969C7.58869 10.2444 7.13596 9.86071 6.58348 9.86071H6.06169H5.38643H4.504V11.9095H4.51167V13.4979C4.51167 13.7204 4.54236 13.7588 4.57306 13.8202C4.64979 13.9813 5.16391 14.0657 5.33272 14.0734C6.07703 14.1117 6.84437 14.1501 7.58101 13.9736C7.81121 13.9122 8.04141 13.8355 8.25627 13.7281C8.9392 13.3981 9.43796 12.9761 9.52237 12.0937H9.69118V14.457H1.80298V14.3036C2.0562 14.3036 2.84655 14.3343 3.01537 13.9966C3.05118 13.9301 3.06908 13.7639 3.06908 13.4979V6.14681C3.06908 5.86545 3.05118 5.69152 3.01537 5.62502C2.99491 5.58921 2.93608 5.55084 2.83888 5.50992C2.55497 5.40249 2.10991 5.34111 1.80298 5.34111V5.19531H17.2801V7.74286V7.7889H17.0883C17.0832 7.77356 17.0806 7.75821 17.0806 7.74286C16.9655 6.97553 16.8965 6.43839 16.3517 6.02403C15.8989 5.67106 15.0242 5.55596 14.3489 5.55596C14.1699 5.55596 14.0701 5.56619 14.0496 5.58665C14.0113 5.61735 13.9883 5.63269 13.9883 5.84755V13.4979C13.9883 13.7741 14.0062 13.9506 14.042 14.0273C14.0573 14.0683 14.1213 14.1092 14.2338 14.1501C14.5407 14.2729 15.1239 14.3036 15.4615 14.3036V14.457H11.0647V14.3036C11.3947 14.3036 11.9702 14.2729 12.2771 14.1501C12.3845 14.1092 12.4536 14.058 12.4843 13.9966C12.515 13.9301 12.5303 13.7639 12.5303 13.4979V5.86289C12.5303 5.61735 12.515 5.58665 12.4613 5.57131C12.4357 5.56108 12.341 5.55596 12.1774 5.55596C11.5788 5.55596 10.7655 5.67873 10.3434 6.01636C9.85233 6.40003 9.69118 7.14434 9.5991 7.75054H9.40727C9.35356 7.38222 9.32286 7.06761 9.2845 6.80672C9.12336 5.87824 8.54018 5.77081 7.65007 5.63269C7.08992 5.55596 6.45303 5.54829 5.82382 5.55596C5.4248 5.55596 5.02579 5.58665 4.72653 5.69408C4.64212 5.72477 4.58841 5.77849 4.55771 5.83987C4.52702 5.90893 4.51167 5.97799 4.51167 6.25423V7.33618H4.504V9.40798" fill="white"/>
<path d="M41.5586 9.84532H42.2722V19.0227H23.2346V18.3934H23.4034C24.2322 18.3934 24.9458 18.3704 25.529 18.309C26.0968 18.2553 26.4958 18.1863 26.6953 18.1095C26.8795 18.0405 26.9946 17.9561 27.0406 17.8716C27.0636 17.8256 27.1173 17.6491 27.1173 16.9585V2.27172C27.1173 1.56577 27.0559 1.37394 27.0253 1.3279C27.0253 1.32022 26.9792 1.25884 26.7337 1.17443C26.5265 1.0977 26.1045 1.02864 25.4829 0.951903C24.8537 0.87517 24.1554 0.836803 23.4034 0.836803H23.2346V0.238281H35.3201V0.836803H35.1513C34.1001 0.836803 33.2637 0.867496 32.6652 0.921209C32.082 0.974923 31.6676 1.05166 31.4374 1.14374C31.1458 1.25116 31.0998 1.32022 31.0998 1.32022C31.0384 1.41998 30.977 1.6732 30.977 2.27172V16.9278C30.977 17.6184 31.0384 17.8486 31.0691 17.9177C31.0768 17.9177 31.1075 17.9791 31.3223 18.0635C31.9362 18.2476 33.0565 18.3397 34.6295 18.3397C36.8625 18.3397 38.5967 17.6491 39.7707 16.2909C40.9601 14.9251 41.5586 12.8149 41.5586 10.0141V9.84532Z" fill="#1A1A1A"/>
<path fill-rule="evenodd" clip-rule="evenodd" d="M53.936 14.0507H54.5039V14.2195C54.5039 15.6928 54.0281 16.9128 53.0843 17.8566C52.1405 18.8005 50.8667 19.2762 49.3013 19.2762C47.9892 19.2762 46.7768 18.7698 45.7025 17.7722C44.4287 16.6059 43.7842 15.0559 43.7842 13.1605C43.7842 11.1271 44.4211 9.43897 45.6642 8.15752C46.7614 7.03721 48.0122 6.47705 49.3857 6.47705C50.6672 6.47705 51.7414 6.85305 52.5855 7.60503C53.8209 8.70232 54.4501 10.5056 54.4501 12.961V13.1298H47.0991C47.1144 15.0559 47.3523 16.4678 47.8127 17.3348C48.2654 18.2019 48.9407 18.624 49.8768 18.624C50.8744 18.624 51.7721 18.2787 52.5395 17.6034C53.468 16.7824 53.936 15.639 53.936 14.2195V14.0507ZM49.754 7.09859C48.7872 7.09859 48.1196 7.52063 47.7206 8.38772C47.3216 9.25481 47.1144 10.6283 47.0991 12.4469H51.6801C51.6724 10.7127 51.5036 9.36223 51.1966 8.44143C50.8897 7.53597 50.414 7.09859 49.754 7.09859Z" fill="#1A1A1A"/>
<path fill-rule="evenodd" clip-rule="evenodd" d="M67.3716 20.4267C67.3716 21.8846 66.8422 23.028 65.7986 23.8183C64.7781 24.601 63.4199 25 61.7701 25C59.8211 25 58.248 24.6701 57.0817 24.0178C55.8846 23.3502 55.2784 22.5599 55.2784 21.6851C55.2784 21.0866 55.6237 20.5878 56.3067 20.1888C56.6827 19.9816 57.2198 19.7668 57.9334 19.5443C57.3042 19.2834 56.8208 19.0071 56.4832 18.7232C55.8923 18.2168 55.593 17.5492 55.593 16.7358C55.593 15.8917 55.8539 15.1935 56.3527 14.6487C56.7517 14.2189 57.2889 13.9504 57.9488 13.8583C57.5344 13.5897 57.2045 13.2598 56.9436 12.8838C56.5829 12.362 56.3987 11.7174 56.3987 10.9578C56.3987 9.69167 56.9743 8.59438 58.1176 7.71194C59.1535 6.90624 60.3122 6.49955 61.5706 6.49955C61.9389 6.49955 62.3379 6.55327 62.7523 6.65302C63.0669 6.72975 63.3738 6.82183 63.6577 6.92926V6.49955C63.6577 5.54806 63.8342 4.92651 64.1872 4.61191C64.5325 4.31265 65.0543 4.15918 65.7449 4.15918C66.0672 4.15918 66.3588 4.27428 66.5966 4.48913C66.8422 4.71933 66.9726 5.01092 66.9726 5.37157C66.9726 6.34608 66.3664 6.55326 65.86 6.55326C65.1234 6.55326 64.7167 6.16192 64.7167 5.45598C64.7167 5.33832 64.7346 5.22578 64.7704 5.11835C64.6374 5.18997 64.5402 5.28972 64.4788 5.41761C64.3714 5.67083 64.31 6.0238 64.31 6.47653C64.3253 6.80393 64.3356 7.06226 64.3407 7.25154C65.062 7.61986 65.6375 8.10328 66.0672 8.68646C66.5122 9.308 66.7424 10.0293 66.7424 10.8427C66.7424 12.0627 66.1593 13.0756 65.0083 13.8429C63.9954 14.5259 62.8367 14.8789 61.5706 14.8789C60.6882 14.8789 59.8364 14.7177 59.0461 14.4185C58.4322 14.4185 57.9257 14.5182 57.5421 14.7177C57.0587 14.9709 56.8208 15.3776 56.8208 15.9608C56.8208 16.168 57.0203 16.3368 57.4193 16.4596C57.8567 16.6284 58.7391 16.7128 60.0436 16.7128H61.701C63.4122 16.7128 64.732 16.9507 65.6221 17.4187C66.7808 18.0173 67.3716 19.0301 67.3716 20.4267ZM57.5881 21.8539C57.5881 22.5982 57.803 23.1661 58.2173 23.5267C58.8849 24.1099 60.1357 24.4015 61.9389 24.4015C63.182 24.4015 64.1565 24.1406 64.8318 23.6265C65.507 23.12 65.8293 22.5292 65.8293 21.8079C65.8293 20.9485 65.5761 20.3883 65.0466 20.0891C64.4941 19.7745 63.4506 19.621 61.9236 19.621C60.1817 19.621 58.977 19.8205 58.3401 20.2272C57.8337 20.5341 57.5881 21.0713 57.5881 21.8539ZM63.3662 8.07259C63.0209 7.42035 62.43 7.09807 61.5706 7.09807C60.7802 7.09807 60.2201 7.39733 59.8671 8.01888C59.4911 8.66344 59.307 9.56889 59.307 10.7045C59.307 12.009 59.4681 12.9528 59.7827 13.4976C60.082 14.0271 60.6651 14.2803 61.5706 14.2803C62.3763 14.2803 62.9441 14.0118 63.2894 13.4516C63.6501 12.8761 63.8266 11.9553 63.8266 10.7045C63.8266 9.53053 63.6731 8.64042 63.3662 8.07259Z" fill="#1A1A1A"/>
<path fill-rule="evenodd" clip-rule="evenodd" d="M81.1231 15.0175C81.1231 15.4165 81.1308 15.7925 81.1538 16.1532C81.1538 17.3195 81.008 18.0792 80.7164 18.4935C80.3404 19.0153 79.5885 19.2762 78.4835 19.2762C77.6241 19.2762 76.9719 19.1227 76.5421 18.8235C76.1278 18.5242 75.8208 18.0638 75.6367 17.4499C75.23 18.1866 74.6622 18.7007 73.9562 18.9846C73.4575 19.1765 72.7899 19.2762 71.9765 19.2762C71.1478 19.2762 70.4111 19.0767 69.7973 18.6777C68.9302 18.1329 68.4928 17.2965 68.4928 16.1915C68.4928 15.1096 68.9148 14.1964 69.7435 13.4598C70.5646 12.7462 71.5775 12.3395 72.7438 12.2397C73.8565 12.1477 74.6085 12.0019 74.9845 11.8024C75.3221 11.6259 75.4986 11.2038 75.4986 10.5516V8.88649C75.4986 8.16519 75.3835 7.68177 75.1763 7.44389C75.0305 7.29043 74.6622 7.09859 73.726 7.09859C73.1045 7.09859 72.552 7.22137 72.0839 7.45924C71.7233 7.6434 71.4701 7.85825 71.3089 8.1345C71.7156 8.1345 72.0763 8.29564 72.3371 8.62559C72.5904 8.9402 72.7208 9.30084 72.7208 9.69986C72.7208 10.1679 72.552 10.5593 72.2297 10.8585C71.9074 11.1501 71.5314 11.3036 71.1017 11.3036C70.8178 11.3036 70.5646 11.2269 70.3421 11.0734C69.7436 10.6821 69.4366 10.1756 69.4366 9.56174C69.4366 9.27783 69.498 8.94787 69.6131 8.5949C69.897 7.79687 70.6106 7.21369 71.7233 6.85305C72.4983 6.59983 73.2963 6.47705 74.0943 6.47705C75.5293 6.47705 76.6419 6.75329 77.3939 7.30577C78.0845 7.81222 78.4375 8.46445 78.4375 9.23946V15.5393C78.4375 16.9435 78.4835 17.4423 78.5142 17.6188C78.637 18.1866 78.9132 18.4552 79.3813 18.4552C79.8033 18.4552 80.0719 18.248 80.2254 17.8029C80.3865 17.3118 80.4709 16.5829 80.4709 15.639C80.4709 15.3781 80.4658 15.1147 80.4556 14.8487C80.4453 14.5827 80.4402 14.3064 80.4402 14.02V13.5903H81.1231V15.0175ZM72.7515 18.6547C73.4344 18.6547 74.033 18.3784 74.5854 17.8029C75.1302 17.2351 75.4065 16.5368 75.4065 15.7234V12.3088C75.1865 12.4725 74.9128 12.5774 74.5854 12.6234C74.1404 12.695 73.7081 12.759 73.2886 12.8152C72.7899 12.938 72.3909 13.2143 72.0916 13.6593C71.731 14.2041 71.5468 14.9868 71.5468 15.9767C71.5468 17.0586 71.6465 17.7876 71.8537 18.1559C72.0379 18.4935 72.3371 18.6547 72.7515 18.6547Z" fill="#1A1A1A"/>
<path d="M89.9548 18.4237V19.0222H81.2686V18.4237H81.4374C81.9898 18.4237 82.4886 18.4084 82.926 18.37C83.3404 18.3316 83.701 18.2626 84.0003 18.1628C84.031 18.1168 84.1 17.9633 84.1 17.4722V2.15621C84.1 1.7265 84.0233 1.54234 83.9619 1.45794C83.8698 1.33516 83.7854 1.25843 83.701 1.22774C83.3864 1.14333 82.6267 1.09729 81.4681 1.09729H81.2992V0.514116L87.131 0V17.4799C87.131 17.948 87.1694 18.1014 87.1924 18.1398C87.2001 18.1398 87.2384 18.1858 87.3689 18.2396C87.7372 18.3623 88.5506 18.4237 89.786 18.4237H89.9548Z" fill="#1A1A1A"/>
<path d="M164.371 17.9014C164.586 17.9014 164.749 17.9602 164.862 18.0779C164.975 18.2006 165.033 18.3515 165.038 18.5306C165.033 18.7045 164.975 18.8503 164.862 18.968C164.749 19.0856 164.586 19.1444 164.371 19.1444C164.171 19.1444 164.013 19.0856 163.895 18.968C163.777 18.8554 163.719 18.7096 163.719 18.5306C163.719 18.3515 163.775 18.2006 163.887 18.0779C164.005 17.9602 164.166 17.9014 164.371 17.9014Z" fill="#1A1A1A"/>
<path d="M168.216 18.2776C168.497 18.2776 168.73 18.1958 168.914 18.0321C169.103 17.8684 169.203 17.6663 169.213 17.4259H170.28C170.27 17.7379 170.173 18.0295 169.988 18.3006C169.804 18.5718 169.556 18.7866 169.244 18.9452C168.932 19.1038 168.594 19.1831 168.231 19.1831C167.525 19.1831 166.965 18.9554 166.551 18.5001C166.136 18.0449 165.929 17.4131 165.929 16.6048V16.4897C165.929 15.7224 166.134 15.1085 166.543 14.6481C166.952 14.1877 167.512 13.9575 168.224 13.9575C168.822 13.9575 169.311 14.1315 169.689 14.4793C170.068 14.8323 170.265 15.2927 170.28 15.8605H169.213C169.203 15.5689 169.106 15.331 168.922 15.1469C168.738 14.9576 168.502 14.863 168.216 14.863C167.848 14.863 167.564 14.996 167.364 15.262C167.165 15.528 167.065 15.9321 167.065 16.4744V16.6585C167.065 17.2008 167.162 17.6075 167.356 17.8786C167.556 18.1497 167.842 18.2827 168.216 18.2776Z" fill="#1A1A1A"/>
<path fill-rule="evenodd" clip-rule="evenodd" d="M170.731 16.5281C170.731 16.0319 170.831 15.5868 171.03 15.1929C171.224 14.7939 171.498 14.4895 171.851 14.2798C172.204 14.0649 172.611 13.9575 173.071 13.9575C173.752 13.9575 174.304 14.1775 174.729 14.6174C175.153 15.0523 175.383 15.6329 175.419 16.3593V16.6202C175.419 17.1164 175.325 17.5614 175.135 17.9553C174.946 18.3492 174.672 18.6511 174.314 18.8608C173.956 19.0756 173.544 19.1831 173.079 19.1831C172.368 19.1831 171.8 18.9478 171.375 18.4771C170.946 18.0014 170.731 17.3696 170.731 16.5818V16.5281ZM171.866 16.6278C171.866 17.1445 171.974 17.5486 172.189 17.8402C172.404 18.1369 172.7 18.2853 173.079 18.2853C173.463 18.2853 173.762 18.1344 173.977 17.8326C174.186 17.5359 174.291 17.101 174.291 16.5281C174.291 16.0165 174.181 15.6124 173.961 15.3157C173.746 15.019 173.45 14.8707 173.071 14.8707C172.703 14.8707 172.409 15.0164 172.189 15.308C171.974 15.5996 171.866 16.0396 171.866 16.6278Z" fill="#1A1A1A"/>
<path d="M177.254 14.0496L177.285 14.5791C177.638 14.1647 178.124 13.9575 178.743 13.9575C179.418 13.9575 179.879 14.2159 180.124 14.7325C180.492 14.2159 181.009 13.9575 181.674 13.9575C182.227 13.9575 182.641 14.111 182.917 14.4179C183.188 14.7249 183.326 15.1776 183.332 15.7761V19.091H182.196V15.8145C182.196 15.4922 182.127 15.2569 181.989 15.1085C181.851 14.9602 181.62 14.886 181.298 14.886C181.037 14.886 180.825 14.9551 180.661 15.0932C180.497 15.2313 180.385 15.4129 180.324 15.638V19.091H179.196V15.7761C179.18 15.1827 178.876 14.886 178.282 14.886C177.832 14.886 177.513 15.0702 177.323 15.4385V19.091H176.188V14.0496H177.254Z" fill="#1A1A1A"/>
<path fill-rule="evenodd" clip-rule="evenodd" d="M124.746 8.06544C126.066 9.27015 126.741 10.8816 126.741 12.8459C126.741 14.7336 126.081 16.3296 124.776 17.5727C123.587 18.7084 122.229 19.2762 120.74 19.2762C119.213 19.2762 117.87 18.7467 116.735 17.6878C115.407 16.4601 114.74 14.8333 114.74 12.8459C114.74 10.9583 115.4 9.37758 116.704 8.14984C117.893 7.03721 119.252 6.47705 120.74 6.47705C122.244 6.47705 123.587 7.00651 124.746 8.06544ZM118.622 17.3579C118.991 18.248 119.681 18.6854 120.74 18.6854C121.707 18.6854 122.375 18.2403 122.789 17.3272C123.211 16.3757 123.434 14.8717 123.434 12.8459C123.434 10.7665 123.249 9.2855 122.897 8.45678C122.505 7.52063 121.799 7.0679 120.74 7.0679C119.773 7.0679 119.106 7.50528 118.692 8.40306C118.262 9.33154 118.047 10.8202 118.047 12.8459C118.047 14.9101 118.239 16.4294 118.622 17.3579Z" fill="#1A1A1A"/>
<path d="M138.665 8.87086C138.665 9.70725 138.312 10.2904 137.614 10.5974C137.437 10.6818 137.215 10.7278 136.939 10.7278C136.509 10.7278 136.133 10.582 135.834 10.2828C135.534 9.98349 135.381 9.53844 135.381 8.96294C135.381 8.57927 135.527 8.20328 135.803 7.82728C136.028 7.53569 136.284 7.37455 136.57 7.34386C136.455 7.21341 136.24 7.09831 135.826 7.09831C135.335 7.09831 134.828 7.48198 134.314 8.23397C133.616 9.23151 133.263 10.5436 133.263 12.132V17.4727C133.263 17.9484 133.309 18.1019 133.324 18.1403C133.332 18.1403 133.371 18.1786 133.501 18.24C133.869 18.3628 134.69 18.4242 135.926 18.4242H136.095V19.0227H127.401V18.4242H127.569C128.122 18.4242 128.621 18.4088 129.058 18.3705C129.472 18.3321 129.833 18.263 130.14 18.1633C130.171 18.1173 130.232 17.9561 130.232 17.4727V8.54091C130.232 8.04981 130.171 7.94238 130.155 7.92704C130.002 7.70451 129.91 7.65079 129.864 7.63545C129.541 7.54337 128.774 7.49733 127.569 7.49733H127.401V6.91415L133.263 6.46143V8.90155C133.391 8.58439 133.555 8.27745 133.754 7.98075C134.406 6.98321 135.258 6.47677 136.263 6.47677C136.655 6.47677 137.077 6.59955 137.522 6.85277C137.975 7.11366 138.281 7.44362 138.435 7.84263C138.588 8.21862 138.665 8.56392 138.665 8.87086Z" fill="#1A1A1A"/>
<path d="M147.128 18.4237H147.297V19.0222H138.611V18.4237H138.78C139.324 18.4237 139.831 18.4084 140.268 18.37C140.683 18.3316 141.043 18.2626 141.342 18.1628C141.373 18.1168 141.442 17.9633 141.442 17.4722V2.15621C141.442 1.73418 141.365 1.54234 141.304 1.45794C141.212 1.33516 141.12 1.25843 141.043 1.22774C140.729 1.14333 139.969 1.09729 138.81 1.09729H138.641V0.514116L144.465 0V17.4799C144.465 17.948 144.512 18.1014 144.535 18.1398C144.535 18.1398 144.581 18.1858 144.711 18.2396C145.072 18.3623 145.893 18.4237 147.128 18.4237Z" fill="#1A1A1A"/>
<path fill-rule="evenodd" clip-rule="evenodd" d="M161.478 18.1398V18.7153L155.769 19.2985V16.797C155.667 17.0681 155.544 17.3341 155.401 17.595C154.779 18.7076 153.897 19.2755 152.792 19.2755C151.372 19.2755 150.183 18.7307 149.262 17.6487C148.265 16.4747 147.758 14.8556 147.758 12.8222C147.758 11.418 148.226 10.0521 149.139 8.77832C150.214 7.25132 151.595 6.47631 153.245 6.47631C154.173 6.47631 154.902 6.98275 155.432 7.98796C155.559 8.23863 155.672 8.50208 155.769 8.77832V2.15621C155.769 1.72651 155.692 1.54234 155.631 1.45794C155.539 1.33516 155.416 1.2661 155.247 1.23541C154.779 1.14333 153.72 1.09729 152.078 1.09729H151.909V0.506442L158.792 0V17.1883C158.792 17.6641 158.839 17.8175 158.862 17.8559C158.862 17.8559 158.908 17.8943 159.03 17.9557C159.399 18.0784 160.174 18.1398 161.309 18.1398H161.478ZM151.38 17.0579C151.664 18.1475 152.232 18.6846 153.107 18.6846C153.682 18.6846 154.219 18.2165 154.703 17.3111C155.316 16.1678 155.623 14.6484 155.623 12.7915C155.623 10.9115 155.409 9.46125 154.979 8.4944C154.564 7.55058 154.027 7.09785 153.337 7.09785C152.485 7.09785 151.917 7.48152 151.587 8.27188C151.25 9.1006 151.073 10.6429 151.073 12.8452C151.073 14.8556 151.173 16.2675 151.38 17.0579Z" fill="#1A1A1A"/>
<path d="M117.809 0.238281V0.836803H117.641C116.351 0.836803 115.415 1.48904 114.794 2.83188C114.702 3.03138 114.356 3.94451 113.742 5.62498L109.016 19.1378H107.826L103.736 5.66334L100.245 19.1378H99.025L98.9866 19.0227L92.6944 2.33311C92.3568 1.4123 92.0806 1.12072 91.9118 1.03631C91.7199 0.944229 91.1598 0.836803 89.5637 0.836803H89.3949V0.238281H98.8485V0.844476C97.9584 0.859823 97.3138 0.913537 96.9455 1.01329C96.4544 1.15141 96.4007 1.40463 96.4007 1.58112C96.4007 1.74993 96.4467 1.95711 96.5541 2.20266L100.859 13.7204L103.322 4.32818L102.731 2.33311C102.463 1.43532 102.171 1.14374 101.979 1.05166C101.795 0.96725 101.312 0.867496 100.084 0.844476V0.238281H109.161V0.836803C108.126 0.844476 107.381 0.905864 106.975 1.01329C106.606 1.12072 106.43 1.32022 106.43 1.64251C106.43 1.83434 106.468 2.02617 106.537 2.21801L110.075 13.7664L113.06 5.34106C113.366 4.42793 113.528 3.67594 113.528 3.10044C113.528 1.61181 112.499 0.875169 110.405 0.844476V0.238281H117.809Z" fill="#1A1A1A"/>
<path d="M0.112305 37.8193C0.506185 37.777 0.750326 37.7054 0.844727 37.6045C0.942383 37.5003 0.991211 37.2318 0.991211 36.7988V32.4678C0.991211 32.113 0.9375 31.8818 0.830078 31.7744C0.722656 31.6637 0.483398 31.5954 0.112305 31.5693V31.3838H5.43945L5.47363 32.8193H5.19531C5.12695 32.3604 4.99837 32.0706 4.80957 31.9502C4.62077 31.8265 4.24805 31.7646 3.69141 31.7646H2.32422C2.19076 31.7646 2.10449 31.7874 2.06543 31.833C2.02962 31.8786 2.01172 31.9681 2.01172 32.1016V34.333H3.45703C3.88346 34.333 4.15527 34.2695 4.27246 34.1426C4.38965 34.0156 4.48405 33.7585 4.55566 33.3711H4.79004V35.6855H4.55566C4.48079 35.2982 4.38477 35.0426 4.26758 34.9189C4.15039 34.792 3.88021 34.7285 3.45703 34.7285H2.01172V36.916C2.01172 37.2839 2.06706 37.5199 2.17773 37.624C2.29167 37.7249 2.53743 37.79 2.91504 37.8193V38H0.112305V37.8193ZM5.61035 37.8389C5.90983 37.8128 6.1084 37.7607 6.20605 37.6826C6.30371 37.6012 6.35254 37.4303 6.35254 37.1699V34.9678C6.35254 34.6455 6.32161 34.416 6.25977 34.2793C6.20117 34.1393 6.09212 34.0693 5.93262 34.0693C5.90007 34.0693 5.85612 34.0742 5.80078 34.084C5.7487 34.0905 5.69336 34.1003 5.63477 34.1133V33.9521C5.82031 33.887 6.01074 33.8203 6.20605 33.752C6.40137 33.6836 6.53646 33.6348 6.61133 33.6055C6.77409 33.5436 6.94173 33.4736 7.11426 33.3955C7.13704 33.3955 7.15007 33.4036 7.15332 33.4199C7.15983 33.4362 7.16309 33.4704 7.16309 33.5225V34.3232C7.37142 34.0335 7.57161 33.8073 7.76367 33.6445C7.95898 33.4818 8.16081 33.4004 8.36914 33.4004C8.53516 33.4004 8.67025 33.4508 8.77441 33.5518C8.87858 33.6494 8.93066 33.7731 8.93066 33.9229C8.93066 34.0563 8.88997 34.1686 8.80859 34.2598C8.73047 34.3509 8.63118 34.3965 8.51074 34.3965C8.38704 34.3965 8.26172 34.3395 8.13477 34.2256C8.01107 34.1117 7.91341 34.0547 7.8418 34.0547C7.72786 34.0547 7.58789 34.1475 7.42188 34.333C7.25586 34.5153 7.17285 34.7041 7.17285 34.8994V37.1016C7.17285 37.3815 7.23796 37.5768 7.36816 37.6875C7.49837 37.7949 7.71484 37.8454 8.01758 37.8389V38H5.61035V37.8389ZM9.15039 35.7344C9.15039 35.0866 9.35547 34.5397 9.76562 34.0938C10.179 33.6445 10.7096 33.4199 11.3574 33.4199C12.002 33.4199 12.5358 33.6315 12.959 34.0547C13.3822 34.4779 13.5938 35.041 13.5938 35.7441C13.5938 36.3919 13.3887 36.9551 12.9785 37.4336C12.5684 37.9121 12.0378 38.1514 11.3867 38.1514C10.7617 38.1514 10.2327 37.9219 9.7998 37.4629C9.36686 37.0039 9.15039 36.4277 9.15039 35.7344ZM11.2207 33.7129C10.9635 33.7129 10.7406 33.7975 10.5518 33.9668C10.2262 34.263 10.0635 34.7741 10.0635 35.5C10.0635 36.0794 10.1937 36.6198 10.4541 37.1211C10.7178 37.6224 11.0824 37.873 11.5479 37.873C11.9124 37.873 12.1924 37.7054 12.3877 37.3701C12.5863 37.0348 12.6855 36.5954 12.6855 36.0518C12.6855 35.4886 12.5602 34.958 12.3096 34.46C12.0589 33.9619 11.696 33.7129 11.2207 33.7129ZM14.0576 37.873C14.3115 37.8503 14.4808 37.8079 14.5654 37.7461C14.6956 37.6517 14.7607 37.4629 14.7607 37.1797V34.6553C14.7607 34.4144 14.7282 34.2565 14.6631 34.1816C14.6012 34.1068 14.4971 34.0693 14.3506 34.0693C14.2822 34.0693 14.2301 34.0726 14.1943 34.0791C14.1618 34.0856 14.1227 34.097 14.0771 34.1133V33.9424L14.4287 33.8252C14.5557 33.7829 14.764 33.7064 15.0537 33.5957C15.3434 33.485 15.4964 33.4297 15.5127 33.4297C15.529 33.4297 15.5387 33.4378 15.542 33.4541C15.5452 33.4704 15.5469 33.5013 15.5469 33.5469V34.2061C15.8691 33.9131 16.1475 33.7113 16.3818 33.6006C16.6162 33.4867 16.8571 33.4297 17.1045 33.4297C17.4398 33.4297 17.7067 33.5436 17.9053 33.7715C18.0094 33.8952 18.0957 34.0628 18.1641 34.2744C18.4049 34.0303 18.6149 33.8496 18.7939 33.7324C19.1032 33.5306 19.4189 33.4297 19.7412 33.4297C20.2653 33.4297 20.6152 33.6429 20.791 34.0693C20.8919 34.3102 20.9424 34.6911 20.9424 35.2119V37.2383C20.9424 37.4694 20.9928 37.6273 21.0938 37.7119C21.1979 37.7933 21.3835 37.847 21.6504 37.873V38H19.4482V37.8633C19.7314 37.8372 19.917 37.7803 20.0049 37.6924C20.096 37.6045 20.1416 37.4255 20.1416 37.1553V35.0508C20.1416 34.735 20.1074 34.5023 20.0391 34.3525C19.9186 34.0856 19.6826 33.9521 19.3311 33.9521C19.1195 33.9521 18.9095 34.0221 18.7012 34.1621C18.5807 34.2435 18.4326 34.3737 18.2568 34.5527V37.0527C18.2568 37.3164 18.3024 37.5166 18.3936 37.6533C18.488 37.79 18.6849 37.8633 18.9844 37.873V38H16.7432V37.873C17.0524 37.834 17.2493 37.7591 17.334 37.6484C17.4186 37.5378 17.4609 37.266 17.4609 36.833V35.4658C17.4609 34.9645 17.4284 34.6195 17.3633 34.4307C17.2559 34.1117 17.028 33.9521 16.6797 33.9521C16.4811 33.9521 16.2858 34.0075 16.0938 34.1182C15.9017 34.2256 15.7324 34.3672 15.5859 34.543V37.2139C15.5859 37.4613 15.6283 37.6322 15.7129 37.7266C15.8008 37.821 15.9896 37.8698 16.2793 37.873V38H14.0576V37.873ZM24.1992 31.3838H29.8486L29.9023 33.083H29.6631C29.5459 32.5492 29.3962 32.2025 29.2139 32.043C29.0348 31.8802 28.6556 31.7988 28.0762 31.7988H27.5195V36.916C27.5195 37.3034 27.5798 37.5443 27.7002 37.6387C27.8206 37.7298 28.0843 37.79 28.4912 37.8193V38H25.5762V37.8193C25.9993 37.7868 26.263 37.7168 26.3672 37.6094C26.4714 37.502 26.5234 37.2318 26.5234 36.7988V31.7988H25.9668C25.4134 31.7988 25.0358 31.8786 24.834 32.0381C24.6354 32.1976 24.4857 32.5459 24.3848 33.083H24.1406L24.1992 31.3838ZM30.2051 37.8633C30.472 37.8275 30.6462 37.7624 30.7275 37.668C30.8122 37.5703 30.8545 37.3424 30.8545 36.9844V32.2969C30.8545 32.1146 30.8301 31.9811 30.7812 31.8965C30.7357 31.8086 30.6217 31.7646 30.4395 31.7646C30.4036 31.7646 30.3678 31.7679 30.332 31.7744C30.2995 31.7777 30.262 31.7826 30.2197 31.7891V31.6133C30.363 31.571 30.5387 31.5205 30.7471 31.4619C30.9587 31.4001 31.1051 31.3561 31.1865 31.3301L31.6553 31.1836L31.665 31.2178V34.2158C31.8701 33.9814 32.0524 33.8089 32.2119 33.6982C32.4984 33.5029 32.8076 33.4053 33.1396 33.4053C33.667 33.4053 34.0267 33.6266 34.2188 34.0693C34.3229 34.3037 34.375 34.6113 34.375 34.9922V36.9844C34.375 37.3294 34.4141 37.554 34.4922 37.6582C34.5736 37.7624 34.738 37.8307 34.9854 37.8633V38H32.8711V37.8633C33.1543 37.8242 33.3366 37.7575 33.418 37.6631C33.4993 37.5687 33.54 37.3424 33.54 36.9844V35.0068C33.54 34.6911 33.4863 34.4355 33.3789 34.2402C33.2747 34.0449 33.0762 33.9473 32.7832 33.9473C32.5293 33.9473 32.2835 34.0384 32.0459 34.2207C31.8083 34.403 31.6895 34.5218 31.6895 34.5771V36.9844C31.6895 37.349 31.7318 37.5768 31.8164 37.668C31.901 37.7591 32.0817 37.8242 32.3584 37.8633V38H30.2051V37.8633ZM37.4072 33.4199C37.8662 33.4199 38.2682 33.5794 38.6133 33.8984C38.9583 34.2142 39.1309 34.6634 39.1309 35.2461H36.0303C36.0628 36.0013 36.2337 36.5514 36.543 36.8965C36.8522 37.2415 37.2184 37.4141 37.6416 37.4141C37.9834 37.4141 38.2715 37.3245 38.5059 37.1455C38.7402 36.9665 38.9567 36.7126 39.1553 36.3838L39.3262 36.4424C39.1927 36.8558 38.9421 37.2383 38.5742 37.5898C38.2096 37.9414 37.762 38.1172 37.2314 38.1172C36.6195 38.1172 36.1458 37.8861 35.8105 37.4238C35.4785 36.9616 35.3125 36.4294 35.3125 35.8271C35.3125 35.1729 35.5062 34.6081 35.8936 34.1328C36.2809 33.6576 36.7855 33.4199 37.4072 33.4199ZM37.124 33.7764C36.7529 33.7764 36.4697 33.9408 36.2744 34.2695C36.1702 34.4453 36.0954 34.6667 36.0498 34.9336H38.1104C38.0745 34.6081 38.0127 34.3656 37.9248 34.2061C37.7653 33.9196 37.4984 33.7764 37.124 33.7764ZM42.1729 37.8193C42.5407 37.7803 42.7783 37.7152 42.8857 37.624C42.9964 37.5296 43.0518 37.2936 43.0518 36.916V32.4678C43.0518 32.113 42.998 31.8818 42.8906 31.7744C42.7832 31.6637 42.5439 31.5954 42.1729 31.5693V31.3838H47.4854L47.5195 32.8193H47.2656C47.181 32.3766 47.054 32.0902 46.8848 31.96C46.7155 31.8298 46.3379 31.7646 45.752 31.7646H44.3945C44.248 31.7646 44.1569 31.7891 44.1211 31.8379C44.0885 31.8835 44.0723 31.9714 44.0723 32.1016V34.333H45.6104C46.0368 34.333 46.3086 34.2695 46.4258 34.1426C46.543 34.0156 46.6374 33.7585 46.709 33.3711H46.9434V35.6855H46.709C46.6341 35.2982 46.5381 35.0426 46.4209 34.9189C46.3037 34.792 46.0335 34.7285 45.6104 34.7285H44.0723V37.2041C44.0723 37.4027 44.1341 37.5199 44.2578 37.5557C44.3848 37.5915 44.7607 37.6094 45.3857 37.6094C46.0628 37.6094 46.5625 37.5361 46.8848 37.3896C47.207 37.2399 47.4967 36.8802 47.7539 36.3105H48.0322L47.5781 38H42.1729V37.8193ZM50.6592 33.3955C51.0661 33.3955 51.416 33.5013 51.709 33.7129C52.0052 33.9212 52.1533 34.1507 52.1533 34.4014C52.1533 34.5088 52.1159 34.6097 52.041 34.7041C51.9661 34.7952 51.8506 34.8408 51.6943 34.8408C51.5804 34.8408 51.4795 34.8018 51.3916 34.7236C51.307 34.6455 51.2451 34.5316 51.2061 34.3818L51.1475 34.1475C51.1051 33.9749 51.0319 33.8529 50.9277 33.7812C50.8203 33.7129 50.6787 33.6787 50.5029 33.6787C50.1318 33.6787 49.8177 33.8415 49.5605 34.167C49.3066 34.4893 49.1797 34.9189 49.1797 35.4561C49.1797 35.9476 49.3197 36.3887 49.5996 36.7793C49.8828 37.1699 50.2637 37.3652 50.7422 37.3652C51.0807 37.3652 51.3818 37.2546 51.6455 37.0332C51.7952 36.9062 51.9645 36.7044 52.1533 36.4277L52.29 36.5107C52.1045 36.9014 51.9092 37.2106 51.7041 37.4385C51.3102 37.8747 50.8545 38.0928 50.3369 38.0928C49.8291 38.0928 49.3799 37.8926 48.9893 37.4922C48.5986 37.0918 48.4033 36.5482 48.4033 35.8613C48.4033 35.1875 48.6165 34.6081 49.043 34.123C49.4694 33.638 50.0081 33.3955 50.6592 33.3955ZM52.8711 35.7344C52.8711 35.0866 53.0762 34.5397 53.4863 34.0938C53.8997 33.6445 54.4303 33.4199 55.0781 33.4199C55.7227 33.4199 56.2565 33.6315 56.6797 34.0547C57.1029 34.4779 57.3145 35.041 57.3145 35.7441C57.3145 36.3919 57.1094 36.9551 56.6992 37.4336C56.2891 37.9121 55.7585 38.1514 55.1074 38.1514C54.4824 38.1514 53.9535 37.9219 53.5205 37.4629C53.0876 37.0039 52.8711 36.4277 52.8711 35.7344ZM54.9414 33.7129C54.6842 33.7129 54.4613 33.7975 54.2725 33.9668C53.9469 34.263 53.7842 34.7741 53.7842 35.5C53.7842 36.0794 53.9144 36.6198 54.1748 37.1211C54.4385 37.6224 54.8031 37.873 55.2686 37.873C55.6331 37.873 55.9131 37.7054 56.1084 37.3701C56.307 37.0348 56.4062 36.5954 56.4062 36.0518C56.4062 35.4886 56.2809 34.958 56.0303 34.46C55.7796 33.9619 55.4167 33.7129 54.9414 33.7129ZM57.7979 37.8633C58.029 37.834 58.1901 37.777 58.2812 37.6924C58.3757 37.6045 58.4229 37.4108 58.4229 37.1113V34.6357C58.4229 34.4274 58.4033 34.2809 58.3643 34.1963C58.3024 34.0726 58.1755 34.0107 57.9834 34.0107C57.9541 34.0107 57.9232 34.0124 57.8906 34.0156C57.8613 34.0189 57.8239 34.0238 57.7783 34.0303V33.8594C57.9118 33.8203 58.2275 33.7194 58.7256 33.5566L59.1846 33.4053C59.2074 33.4053 59.2204 33.4134 59.2236 33.4297C59.2301 33.446 59.2334 33.4688 59.2334 33.498V34.2158C59.5329 33.9359 59.7673 33.7438 59.9365 33.6396C60.1904 33.4801 60.4541 33.4004 60.7275 33.4004C60.9489 33.4004 61.1507 33.4639 61.333 33.5908C61.6846 33.8382 61.8604 34.2793 61.8604 34.9141V37.1943C61.8604 37.4287 61.9076 37.598 62.002 37.7021C62.0964 37.8063 62.2542 37.86 62.4756 37.8633V38H60.3906V37.8633C60.6283 37.8307 60.7943 37.7656 60.8887 37.668C60.9831 37.5671 61.0303 37.3506 61.0303 37.0186V34.9336C61.0303 34.6536 60.9782 34.4225 60.874 34.2402C60.7699 34.0547 60.5778 33.9619 60.2979 33.9619C60.1058 33.9619 59.9105 34.027 59.7119 34.1572C59.6012 34.2321 59.458 34.3558 59.2822 34.5283V37.2627C59.2822 37.4971 59.3343 37.6549 59.4385 37.7363C59.5426 37.8145 59.707 37.8568 59.9316 37.8633V38H57.7979V37.8633ZM62.8711 35.7344C62.8711 35.0866 63.0762 34.5397 63.4863 34.0938C63.8997 33.6445 64.4303 33.4199 65.0781 33.4199C65.7227 33.4199 66.2565 33.6315 66.6797 34.0547C67.1029 34.4779 67.3145 35.041 67.3145 35.7441C67.3145 36.3919 67.1094 36.9551 66.6992 37.4336C66.2891 37.9121 65.7585 38.1514 65.1074 38.1514C64.4824 38.1514 63.9535 37.9219 63.5205 37.4629C63.0876 37.0039 62.8711 36.4277 62.8711 35.7344ZM64.9414 33.7129C64.6842 33.7129 64.4613 33.7975 64.2725 33.9668C63.9469 34.263 63.7842 34.7741 63.7842 35.5C63.7842 36.0794 63.9144 36.6198 64.1748 37.1211C64.4385 37.6224 64.8031 37.873 65.2686 37.873C65.6331 37.873 65.9131 37.7054 66.1084 37.3701C66.307 37.0348 66.4062 36.5954 66.4062 36.0518C66.4062 35.4886 66.2809 34.958 66.0303 34.46C65.7796 33.9619 65.4167 33.7129 64.9414 33.7129ZM67.7783 37.873C68.0322 37.8503 68.2015 37.8079 68.2861 37.7461C68.4163 37.6517 68.4814 37.4629 68.4814 37.1797V34.6553C68.4814 34.4144 68.4489 34.2565 68.3838 34.1816C68.3219 34.1068 68.2178 34.0693 68.0713 34.0693C68.0029 34.0693 67.9508 34.0726 67.915 34.0791C67.8825 34.0856 67.8434 34.097 67.7979 34.1133V33.9424L68.1494 33.8252C68.2764 33.7829 68.4847 33.7064 68.7744 33.5957C69.0641 33.485 69.2171 33.4297 69.2334 33.4297C69.2497 33.4297 69.2594 33.4378 69.2627 33.4541C69.266 33.4704 69.2676 33.5013 69.2676 33.5469V34.2061C69.5898 33.9131 69.8682 33.7113 70.1025 33.6006C70.3369 33.4867 70.5778 33.4297 70.8252 33.4297C71.1605 33.4297 71.4274 33.5436 71.626 33.7715C71.7301 33.8952 71.8164 34.0628 71.8848 34.2744C72.1257 34.0303 72.3356 33.8496 72.5146 33.7324C72.8239 33.5306 73.1396 33.4297 73.4619 33.4297C73.986 33.4297 74.3359 33.6429 74.5117 34.0693C74.6126 34.3102 74.6631 34.6911 74.6631 35.2119V37.2383C74.6631 37.4694 74.7135 37.6273 74.8145 37.7119C74.9186 37.7933 75.1042 37.847 75.3711 37.873V38H73.1689V37.8633C73.4521 37.8372 73.6377 37.7803 73.7256 37.6924C73.8167 37.6045 73.8623 37.4255 73.8623 37.1553V35.0508C73.8623 34.735 73.8281 34.5023 73.7598 34.3525C73.6393 34.0856 73.4033 33.9521 73.0518 33.9521C72.8402 33.9521 72.6302 34.0221 72.4219 34.1621C72.3014 34.2435 72.1533 34.3737 71.9775 34.5527V37.0527C71.9775 37.3164 72.0231 37.5166 72.1143 37.6533C72.2087 37.79 72.4056 37.8633 72.7051 37.873V38H70.4639V37.873C70.7731 37.834 70.9701 37.7591 71.0547 37.6484C71.1393 37.5378 71.1816 37.266 71.1816 36.833V35.4658C71.1816 34.9645 71.1491 34.6195 71.084 34.4307C70.9766 34.1117 70.7487 33.9521 70.4004 33.9521C70.2018 33.9521 70.0065 34.0075 69.8145 34.1182C69.6224 34.2256 69.4531 34.3672 69.3066 34.543V37.2139C69.3066 37.4613 69.349 37.6322 69.4336 37.7266C69.5215 37.821 69.7103 37.8698 70 37.873V38H67.7783V37.873ZM76.2207 31.6963C76.2207 31.5563 76.2695 31.4359 76.3672 31.335C76.4648 31.234 76.5853 31.1836 76.7285 31.1836C76.8685 31.1836 76.9873 31.234 77.085 31.335C77.1859 31.4326 77.2363 31.5531 77.2363 31.6963C77.2363 31.8363 77.1859 31.9567 77.085 32.0576C76.9873 32.1553 76.8685 32.2041 76.7285 32.2041C76.5853 32.2041 76.4648 32.1553 76.3672 32.0576C76.2695 31.9567 76.2207 31.8363 76.2207 31.6963ZM75.5957 37.8633C75.944 37.8307 76.1637 37.7721 76.2549 37.6875C76.346 37.5996 76.3916 37.3652 76.3916 36.9844V34.6553C76.3916 34.4437 76.377 34.2972 76.3477 34.2158C76.2988 34.0824 76.1963 34.0156 76.04 34.0156C76.0042 34.0156 75.9684 34.0189 75.9326 34.0254C75.9001 34.0319 75.8024 34.0579 75.6396 34.1035V33.9521L75.8496 33.8838C76.4193 33.6982 76.8164 33.5583 77.041 33.4639C77.1322 33.4248 77.1908 33.4053 77.2168 33.4053C77.2233 33.4281 77.2266 33.4525 77.2266 33.4785V36.9844C77.2266 37.3555 77.2705 37.5882 77.3584 37.6826C77.4495 37.777 77.653 37.8372 77.9688 37.8633V38H75.5957V37.8633ZM80.6689 33.3955C81.0758 33.3955 81.4258 33.5013 81.7188 33.7129C82.015 33.9212 82.1631 34.1507 82.1631 34.4014C82.1631 34.5088 82.1257 34.6097 82.0508 34.7041C81.9759 34.7952 81.8604 34.8408 81.7041 34.8408C81.5902 34.8408 81.4893 34.8018 81.4014 34.7236C81.3167 34.6455 81.2549 34.5316 81.2158 34.3818L81.1572 34.1475C81.1149 33.9749 81.0417 33.8529 80.9375 33.7812C80.8301 33.7129 80.6885 33.6787 80.5127 33.6787C80.1416 33.6787 79.8275 33.8415 79.5703 34.167C79.3164 34.4893 79.1895 34.9189 79.1895 35.4561C79.1895 35.9476 79.3294 36.3887 79.6094 36.7793C79.8926 37.1699 80.2734 37.3652 80.752 37.3652C81.0905 37.3652 81.3916 37.2546 81.6553 37.0332C81.805 36.9062 81.9743 36.7044 82.1631 36.4277L82.2998 36.5107C82.1143 36.9014 81.9189 37.2106 81.7139 37.4385C81.32 37.8747 80.8643 38.0928 80.3467 38.0928C79.8389 38.0928 79.3896 37.8926 78.999 37.4922C78.6084 37.0918 78.4131 36.5482 78.4131 35.8613C78.4131 35.1875 78.6263 34.6081 79.0527 34.123C79.4792 33.638 80.0179 33.3955 80.6689 33.3955ZM85.1465 31.3838H90.7959L90.8496 33.083H90.6104C90.4932 32.5492 90.3434 32.2025 90.1611 32.043C89.9821 31.8802 89.6029 31.7988 89.0234 31.7988H88.4668V36.916C88.4668 37.3034 88.527 37.5443 88.6475 37.6387C88.7679 37.7298 89.0316 37.79 89.4385 37.8193V38H86.5234V37.8193C86.9466 37.7868 87.2103 37.7168 87.3145 37.6094C87.4186 37.502 87.4707 37.2318 87.4707 36.7988V31.7988H86.9141C86.3607 31.7988 85.9831 31.8786 85.7812 32.0381C85.5827 32.1976 85.4329 32.5459 85.332 33.083H85.0879L85.1465 31.3838ZM91.5332 31.6963C91.5332 31.5563 91.582 31.4359 91.6797 31.335C91.7773 31.234 91.8978 31.1836 92.041 31.1836C92.181 31.1836 92.2998 31.234 92.3975 31.335C92.4984 31.4326 92.5488 31.5531 92.5488 31.6963C92.5488 31.8363 92.4984 31.9567 92.3975 32.0576C92.2998 32.1553 92.181 32.2041 92.041 32.2041C91.8978 32.2041 91.7773 32.1553 91.6797 32.0576C91.582 31.9567 91.5332 31.8363 91.5332 31.6963ZM90.9082 37.8633C91.2565 37.8307 91.4762 37.7721 91.5674 37.6875C91.6585 37.5996 91.7041 37.3652 91.7041 36.9844V34.6553C91.7041 34.4437 91.6895 34.2972 91.6602 34.2158C91.6113 34.0824 91.5088 34.0156 91.3525 34.0156C91.3167 34.0156 91.2809 34.0189 91.2451 34.0254C91.2126 34.0319 91.1149 34.0579 90.9521 34.1035V33.9521L91.1621 33.8838C91.7318 33.6982 92.1289 33.5583 92.3535 33.4639C92.4447 33.4248 92.5033 33.4053 92.5293 33.4053C92.5358 33.4281 92.5391 33.4525 92.5391 33.4785V36.9844C92.5391 37.3555 92.583 37.5882 92.6709 37.6826C92.762 37.777 92.9655 37.8372 93.2812 37.8633V38H90.9082V37.8633ZM93.6572 37.873C93.9111 37.8503 94.0804 37.8079 94.165 37.7461C94.2952 37.6517 94.3604 37.4629 94.3604 37.1797V34.6553C94.3604 34.4144 94.3278 34.2565 94.2627 34.1816C94.2008 34.1068 94.0967 34.0693 93.9502 34.0693C93.8818 34.0693 93.8298 34.0726 93.7939 34.0791C93.7614 34.0856 93.7223 34.097 93.6768 34.1133V33.9424L94.0283 33.8252C94.1553 33.7829 94.3636 33.7064 94.6533 33.5957C94.943 33.485 95.096 33.4297 95.1123 33.4297C95.1286 33.4297 95.1383 33.4378 95.1416 33.4541C95.1449 33.4704 95.1465 33.5013 95.1465 33.5469V34.2061C95.4688 33.9131 95.7471 33.7113 95.9814 33.6006C96.2158 33.4867 96.4567 33.4297 96.7041 33.4297C97.0394 33.4297 97.3063 33.5436 97.5049 33.7715C97.609 33.8952 97.6953 34.0628 97.7637 34.2744C98.0046 34.0303 98.2145 33.8496 98.3936 33.7324C98.7028 33.5306 99.0186 33.4297 99.3408 33.4297C99.8649 33.4297 100.215 33.6429 100.391 34.0693C100.492 34.3102 100.542 34.6911 100.542 35.2119V37.2383C100.542 37.4694 100.592 37.6273 100.693 37.7119C100.798 37.7933 100.983 37.847 101.25 37.873V38H99.0479V37.8633C99.3311 37.8372 99.5166 37.7803 99.6045 37.6924C99.6956 37.6045 99.7412 37.4255 99.7412 37.1553V35.0508C99.7412 34.735 99.707 34.5023 99.6387 34.3525C99.5182 34.0856 99.2822 33.9521 98.9307 33.9521C98.7191 33.9521 98.5091 34.0221 98.3008 34.1621C98.1803 34.2435 98.0322 34.3737 97.8564 34.5527V37.0527C97.8564 37.3164 97.902 37.5166 97.9932 37.6533C98.0876 37.79 98.2845 37.8633 98.584 37.873V38H96.3428V37.873C96.652 37.834 96.849 37.7591 96.9336 37.6484C97.0182 37.5378 97.0605 37.266 97.0605 36.833V35.4658C97.0605 34.9645 97.028 34.6195 96.9629 34.4307C96.8555 34.1117 96.6276 33.9521 96.2793 33.9521C96.0807 33.9521 95.8854 34.0075 95.6934 34.1182C95.5013 34.2256 95.332 34.3672 95.1855 34.543V37.2139C95.1855 37.4613 95.2279 37.6322 95.3125 37.7266C95.4004 37.821 95.5892 37.8698 95.8789 37.873V38H93.6572V37.873ZM103.569 33.4199C104.028 33.4199 104.43 33.5794 104.775 33.8984C105.12 34.2142 105.293 34.6634 105.293 35.2461H102.192C102.225 36.0013 102.396 36.5514 102.705 36.8965C103.014 37.2415 103.381 37.4141 103.804 37.4141C104.146 37.4141 104.434 37.3245 104.668 37.1455C104.902 36.9665 105.119 36.7126 105.317 36.3838L105.488 36.4424C105.355 36.8558 105.104 37.2383 104.736 37.5898C104.372 37.9414 103.924 38.1172 103.394 38.1172C102.782 38.1172 102.308 37.8861 101.973 37.4238C101.641 36.9616 101.475 36.4294 101.475 35.8271C101.475 35.1729 101.668 34.6081 102.056 34.1328C102.443 33.6576 102.948 33.4199 103.569 33.4199ZM103.286 33.7764C102.915 33.7764 102.632 33.9408 102.437 34.2695C102.332 34.4453 102.257 34.6667 102.212 34.9336H104.272C104.237 34.6081 104.175 34.3656 104.087 34.2061C103.927 33.9196 103.66 33.7764 103.286 33.7764ZM106.24 36.4619H106.401C106.476 36.833 106.577 37.1178 106.704 37.3164C106.932 37.681 107.266 37.8633 107.705 37.8633C107.949 37.8633 108.141 37.7965 108.281 37.6631C108.424 37.5264 108.496 37.3506 108.496 37.1357C108.496 36.999 108.455 36.8672 108.374 36.7402C108.293 36.6133 108.149 36.4896 107.944 36.3691L107.397 36.0566C106.997 35.8418 106.702 35.6253 106.514 35.4072C106.325 35.1891 106.23 34.932 106.23 34.6357C106.23 34.2712 106.361 33.9717 106.621 33.7373C106.882 33.5029 107.209 33.3857 107.603 33.3857C107.775 33.3857 107.964 33.4183 108.169 33.4834C108.377 33.5485 108.494 33.5811 108.521 33.5811C108.579 33.5811 108.621 33.5729 108.647 33.5566C108.674 33.5404 108.696 33.5143 108.716 33.4785H108.833L108.867 34.8408H108.716C108.651 34.5251 108.563 34.2793 108.452 34.1035C108.25 33.778 107.959 33.6152 107.578 33.6152C107.35 33.6152 107.171 33.6852 107.041 33.8252C106.911 33.9652 106.846 34.1296 106.846 34.3184C106.846 34.6178 107.07 34.8848 107.52 35.1191L108.164 35.4658C108.857 35.8434 109.204 36.2829 109.204 36.7842C109.204 37.1683 109.059 37.4824 108.77 37.7266C108.483 37.9707 108.107 38.0928 107.642 38.0928C107.446 38.0928 107.225 38.0602 106.978 37.9951C106.73 37.93 106.584 37.8975 106.538 37.8975C106.499 37.8975 106.465 37.9121 106.436 37.9414C106.406 37.9674 106.383 38 106.367 38.0391H106.24V36.4619Z" fill="#595959"/>
</svg>
